<svg width="60" height="29" viewBox="0 0 60 29" xmlns="http://www.w3.org/2000/svg" xmlns:xlink="http://www.w3.org/1999/xlink"><title>Group 2</title><desc>Created using Figma</desc><use xlink:href="#a" transform="translate(1 1)" fill="#FFF"/><use xlink:href="#b" transform="matrix(-1 0 0 1 59 1)" fill="#FFF"/><defs><path id="a" d="M0 13.5l-.402-.298-.22.298.22.298L0 13.5zM9.598-.298l-10 13.5.804.596 10-13.5-.804-.596zm-10 14.096l10 13.5.804-.596-10-13.5-.804.596z"/><path id="b" d="M0 13.5l-.402-.298-.22.298.22.298L0 13.5zM9.598-.298l-10 13.5.804.596 10-13.5-.804-.596zm-10 14.096l10 13.5.804-.596-10-13.5-.804.596z"/></defs></svg>